<!--
	CivCraft Nether Roads Map
	https://github.com/hpoom/Nether-Roads-Map
	
	Town/Portal List
-->
<svg xmlns="http://www.w3.org/2000/svg" version="1.1" width="1800" height="1900">
	<style type="text/css">
	<![CDATA[

		circle.portal {
			stroke: black;
			stroke-width: 1.5;
			fill: silver;
		}
		
		text.portal {
			fill: black;
			font-size: 13px;
			text-anchor: middle;
		}
		
		text.portal_small {
			fill: black;
			font-size: 11px;
			text-anchor: middle;
		}
		
		line.road {
			stroke: #444;
			stroke-width: 2.5;
		}
		
		rect.background {
			fill: white;
			stroke: #888;
			stroke-width: 1.5;
		}
	]]>
	</style>
	
	<defs>
		<pattern id="background" width="100" height="100" patternUnits="userSpaceOnUse">
			<rect class="background" x="0" y="0" width="101" height="101" />
		</pattern>
	</defs>
	
	<rect fill="url(#background)" x="0" y="0" width="100%" height="100%"/>
	
	<!--
		Change this translation to subtract the top left portal of the map.
		If the top left corner is 50, 70 then this translation should be
		-50, -70; likewise 200, -4400 is a translation of -200, 4400.
		
		If you want it to line up with the grid, make it a multiple of 100
		(or the grid size).

		Remember to check the width and height of the SVG at the top.
	-->
	<g transform="translate(1200,1000)">
				
	
		<!-- Roads -->
		<g>
			<line class="road" x1="-1180" y1="-545" x2="409" y2="-545" /><!-- North Road -->
			<line class="road" x1="-1180" y1="-545" x2="-1180" y2="-273" /><!-- North Road/Vilvos -->
			<line class="road" x1="-1178" y1="-272" x2="-1180" y2="-273" /><!-- North Road/Vilvos -->
			<line class="road" x1="-1178" y1="-151" x2="-1178" y2="-272" /><!-- North Road/Vilvos -->
			<line class="road" x1="-1169" y1="-151" x2="-1178" y2="-151" /><!-- North Road/Vilvos -->
			<line class="road" x1="-1169" y1="-151" x2="-1169" y2="-158" /><!-- North Road/Vilvos -->
			<line class="road" x1="409" y1="-518" x2="409" y2="-545" /><!-- North Road/Lazuli -->
			<line class="road" x1="57" y1="-376" x2="57" y2="-545" /><!-- North Road/Hoyt -->
			<line class="road" x1="-1061" y1="-709" x2="-1061" y2="-492" /><!-- Tokiestan/Immelopolis -->
			<line class="road" x1="-821"  y1="-448" x2="-821" y2="-545" /><!-- North Road/Derpenshire -->
			<line class="road" x1="-1082" y1="-492" x2="-1061" y2="-492" /><!-- North Road/Tokiestan -->
			<line class="road" x1="-981" y1="-263" x2="-981" y2="-545" /><!-- North Road/Cutlasso's Fort -->
			<line class="road" x1="-981" y1="-263" x2="-863" y2="-145" /><!-- Cutlasso's Fort/Io -->
			<line class="road" x1="-889" y1="-171" x2="-841" y2="-171" /><!-- Cutlasso's Fort/Io -->
			<line class="road" x1="-863" y1="-145" x2="-467" y2="-145" /><!-- Io/Saga Road -->
			<line class="road" x1="-777"  y1="-895" x2="-777" y2="-545" /><!-- North Road/Central City -->
			<line class="road" x1="-777"  y1="-831" x2="-701" y2="-831" /><!-- Prisma -->
			<line class="road" x1="-777"  y1="-750" x2="-614" y2="-587" /><!-- Central City / Mt Augusta -->
			<line class="road" x1="-715"  y1="-721" x2="-715" y2="-679" /><!-- Yellow Flower -->
			<line class="road" x1="-777"  y1="-679" x2="-706" y2="-679" /><!-- Yellow Flower / Mt Augusta -->
			<line class="road" x1="-741"  y1="-714" x2="-741" y2="-766" /><!-- Avernum -->
			<line class="road" x1="-614"  y1="-621" x2="-616" y2="258" /><!-- Mt Augusta Road  -->
			<line class="road" x1="-614"  y1="-540" x2="-159" y2="-84" /><!-- Mt Augusta Road / Liberty -->
			<line class="road" x1="-538"  y1="-464" x2="-538" y2="-417" /><!-- Alpha Sierra -->
			<line class="road" x1="-159" y1="-58" x2="328" y2="-545" /><!-- Liberty/Lazuli Road -->
			<line class="road" x1="-159" y1="-84" x2="-159" y2="-1" /><!-- Hub road near Liberty -->
			<line class="road" x1="-357" y1="-36" x2="-467" y2="-145" /><!-- Saga/Avalon -->
			<line class="road" x1="-357" y1="-143" x2="-357" y2="-1" /><!-- Saga/Avalon -->
			<line class="road" x1="-357" y1="-143" x2="-385" y2="-143" /><!-- Epicus/Avalon -->
			<line class="road" x1="-357" y1="-1" x2="0" y2="-1" /><!-- Avalon/0,0 -->
			<line class="road" x1="0" y1="-136" x2="0" y2="-1" /><!-- Rothbard/0,0 -->
			<line class="road" x1="-920" y1="289" x2="-645" y2="289" /><!-- Atmora Road -->
			<line class="road" x1="-357" y1="1" x2="-725" y2="369" /><!-- Avalon/Columbia Road -->
			<line class="road" x1="-737" y1="369" x2="-725" y2="369" /><!-- Avalon/Columbia Road Leg 1 -->
			<line class="road" x1="-737" y1="369" x2="-811" y2="443" /><!-- Avalon/Columbia Road Leg 2 -->
			<line class="road" x1="-811" y1="493" x2="-811" y2="443" /><!-- Avalon/Columbia Road Leg 3 -->
			<line class="road" x1="-436" y1="79" x2="-436" y2="308" /><!-- JH/OP North/South road -->
			<line class="road" x1="-664" y1="306" x2="-436" y2="308" /><!-- JH East/West road -->
			<line class="road" x1="0" y1="-1" x2="191" y2="-187" /><!-- 0,0/Road Kink -->
			<line class="road" x1="191" y1="-187" x2="395" y2="-263" /><!-- Road Kink/Cress -->
			<line class="road" x1="395" y1="-263" x2="413" y2="-263" /><!-- Cress Road -->
			<line class="road" x1="395" y1="-263" x2="418" y2="-291" /><!-- Cress Junction -->
			<line class="road" x1="418" y1="-291" x2="418" y2="-430" /><!-- Old Rift Road -->
			<line class="road" x1="418" y1="-430" x2="439" y2="-457" /><!-- Old Rift Road -->
			<line class="road" x1="439" y1="-457" x2="408" y2="-457" /><!-- Lazuli Road -->
			<line class="road" x1="408" y1="-457" x2="410" y2="-545" /><!-- Lazuli Road -->
			<line class="road" x1="23" y1="-240" x2="78" y2="-187" /><!-- TGS Road -->
			<line class="road" x1="78" y1="-187" x2="191" y2="-187" /><!-- TGS Road -->
			<line class="road" x1="16" y1="4" x2="0" y2="4" /><!-- Constantinople Road -->
			<line class="road" x1="16" y1="4" x2="558" y2="546" /><!-- Constantinople Road -->
			<line class="road" x1="540" y1="398" x2="410" y2="398" /><!-- Gerald Road -->
			<line class="road" x1="243" y1="231" x2="490" y2="231" /><!-- Communa Road -->
			<line class="road" x1="162" y1="149" x2="399" y2="149" /><!-- Kodiak Road -->
			<line class="road" x1="0" y1="0" x2="0" y2="18" /><!-- Kizantium Road -->
			<line class="road" x1="0" y1="18" x2="-575" y2="593" /><!-- Kizantium Road -->
			<line class="road" x1="-575" y1="593" x2="-575" y2="748" /><!-- Kizantium Road -->
			<line class="road" x1="-570" y1="756" x2="-518" y2="756" /><!-- Bjornstahl Road -->
			<line class="road" x1="-518" y1="756" x2="-468" y2="806" /><!-- Bjornstahl Road -->
			<line class="road" x1="-468" y1="806" x2="-457" y2="806" /><!-- Bjornstahl Road -->
			<line class="road" x1="-575" y1="707" x2="-591" y2="707" /><!-- Kizantium/Columbia Road -->
			<line class="road" x1="-591" y1="707" x2="-787" y2="512" /><!-- Kizantium/Columbia Road -->
			<line class="road" x1="-787" y1="512" x2="-810" y2="512" /><!-- Kizantium/Columbia Road -->
			<line class="road" x1="-810" y1="512" x2="-810" y2="492" /><!-- Kizantium/Columbia Road -->
			<line class="road" x1="-800" y1="511" x2="-800" y2="593" /><!-- Alexandria Road -->
			<line class="road" x1="-810" y1="480" x2="-685" y2="480" /><!-- Rapture Road -->
			<line class="road" x1="-714" y1="358" x2="-714" y2="399" /><!-- Leningrad Road -->
			<line class="road" x1="-592" y1="237" x2="-244" y2="237" /><!-- Obsidian Plains Road -->
			<line class="road" x1="-237" y1="237" x2="-237" y2="255" /><!-- Vanahiemer Road -->
			<line class="road" x1="-244" y1="237" x2="-244" y2="0" /><!-- Vanahiemer Road -->
		</g>
		
		<!-- Portals -->
		<g>
			<g transform="translate(-614,-618)">
				<circle class="portal" r="14" />
				<text class="portal" y="4">MA</text>
			</g>
			<g transform="translate(-811,492)">
				<circle class="portal" r="14" />
				<text class="portal" y="4">Co</text>
			</g>
			<g transform="translate(1,0)">
				<circle class="portal" r="14" />
				<text class="portal" y="4">00</text>
			</g>
			<g transform="translate(-168,1)">
				<circle class="portal" r="14" />
				<text class="portal" y="4">Li</text>
			</g>
			<g transform="translate(438,-470)">
				<circle class="portal" r="14" />
				<text class="portal" y="4">Ri</text>
			</g>
			<g transform="translate(380,-612)">
				<circle class="portal" r="14" />
				<text class="portal" y="4">SC</text>
			</g>
			<g transform="translate(413,-263)">
				<circle class="portal" r="14" />
				<text class="portal" y="4">Cr</text>
			</g>
			<g transform="translate(-715,-721)">
				<circle class="portal" r="14" />
				<text class="portal" y="4">YF</text>
			</g>
			<g transform="translate(312,-385)">
				<circle class="portal" r="14" />
				<text class="portal" y="4">Ag</text>
			</g>
			<g transform="translate(-59,-366)">
				<circle class="portal" r="14" />
				<text class="portal" y="4">NK</text>
			</g>
			<g transform="translate(-78,-520)">
				<circle class="portal" r="14" />
				<text class="portal" y="4">IK</text>
			</g>
			<g transform="translate(15,-526)">
				<circle class="portal" r="14" />
				<text class="portal" y="4">Ti</text>
			</g>
			<g transform="translate(470,-540)">
				<circle class="portal" r="14" />
				<text class="portal" y="4">Wi</text>
			</g>
			<g transform="translate(-1121,-547)">
				<circle class="portal" r="14" />
				<text class="portal" y="4">Ar</text>
			</g>
			<g transform="translate(527,-683)">
				<circle class="portal" r="14" />
				<text class="portal_small" y="4">Atl</text>
			</g>
			<g transform="translate(80,-200)">
				<circle class="portal" r="14" />
				<text class="portal_small" y="4">TGS</text>
			</g>
			<g transform="translate(-242,240)">
				<circle class="portal" r="14" />
				<text class="portal_small" y="4">Va</text>
			</g>
			<g transform="translate(-577,748)">
				<circle class="portal" r="14" />
				<text class="portal_small" y="4">Ki</text>
			</g>
			<g transform="translate(-778,-899)">
				<circle class="portal" r="14" />
				<text class="portal_small" y="4">CC</text>
			</g>
			<g transform="translate(409,-515)">
				<circle class="portal" r="14" />
				<text class="portal" y="4">La</text>
			</g>
			<g transform="translate(-923,290)">
				<circle class="portal" r="14" />
				<text class="portal_small" y="4">Atm</text>
			</g>
			<g transform="translate(-800,593)">
				<circle class="portal" r="14" />
				<text class="portal" y="4">Al</text>
			</g>
			<g transform="translate(-673,738)">
				<circle class="portal" r="14" />
				<text class="portal" y="4">BB</text>
			</g>
			<g transform="translate(-978,-251)">
				<circle class="portal" r="14" />
				<text class="portal" y="4">Cf</text>
			</g>
			<g transform="translate(-3,-701)">
				<circle class="portal" r="14" />
				<text class="portal" y="4">Go</text>
			</g>
			<g transform="translate(56,-373)">
				<circle class="portal" r="14" />
				<text class="portal" y="4">Ho</text>
			</g>
			<g transform="translate(-1082,-490)">
				<circle class="portal" r="14" />
				<text class="portal" y="4">To</text>
			</g>
			<g transform="translate(-739,-772)">
				<circle class="portal" r="14" />
				<text class="portal" y="4">Ave</text>
			</g>
			<g transform="translate(-819,-448)">
				<circle class="portal" r="14" />
				<text class="portal" y="4">De</text>
			</g>
			<g transform="translate(-684,488)">
				<circle class="portal" r="14" />
				<text class="portal" y="4">Ra</text>
			</g>
			<g transform="translate(-453,806)">
				<circle class="portal" r="14" />
				<text class="portal" y="4">Bj</text>
			</g>
			<g transform="translate(540,400)">
				<circle class="portal" r="14" />
				<text class="portal" y="4">Ge</text>
			</g>
			<g transform="translate(-471,-154)">
				<circle class="portal" r="14" />
				<text class="portal" y="4">Sa</text>
			</g>
			<g transform="translate(-1071,-713)">
				<circle class="portal" r="14" />
				<text class="portal" y="4">Im</text>
			</g>
			<g transform="translate(-1013,-556)">
				<circle class="portal" r="14" />
				<text class="portal_small" y="4">Sky</text>
			</g>
			<g transform="translate(-438,309)">
				<circle class="portal" r="14" />
				<text class="portal" y="4">JH</text>
			</g>
			<g transform="translate(-407,237)">
				<circle class="portal" r="14" />
				<text class="portal" y="4">OP</text>
			</g>
			<g transform="translate(-840,-167)">
				<circle class="portal" r="14" />
				<text class="portal" y="4">Io</text>
			</g>
			<g transform="translate(-537,-417)">
				<circle class="portal" r="14" />
				<text class="portal" y="4">AS</text>
			</g>
			<g transform="translate(-714,398)">
				<circle class="portal" r="14" />
				<text class="portal" y="4">Le</text>
			</g>
			<g transform="translate(560,546)">
				<circle class="portal" r="14" />
				<text class="portal_small" y="4">Con</text>
			</g>
			<g transform="translate(489,231)">
				<circle class="portal" r="14" />
				<text class="portal_small" y="4">Com</text>
			</g>
			<g transform="translate(-701,-831)">
				<circle class="portal" r="14" />
				<text class="portal" y="4">Pr</text>
			</g>
			<g transform="translate(72,-267)">
				<circle class="portal" r="14" />
				<text class="portal" y="4">Tr</text>
			</g>
			<g transform="translate(-385,-143)">
				<circle class="portal" r="14" />
				<text class="portal" y="4">Ep</text>
			</g>
			<g transform="translate(-364,0)">
				<circle class="portal" r="14" />
				<text class="portal" y="4">Ava</text>
			</g>
			<g transform="translate(-669,93)">
				<circle class="portal" r="14" />
				<text class="portal_small" y="4">Sov</text>
			</g>
			<g transform="translate(2,-137)">
				<circle class="portal" r="14" />
				<text class="portal" y="4">Ro</text>
			</g>
			<g transform="translate(398,148)">
				<circle class="portal" r="14" />
				<text class="portal" y="4">Ko</text>
			</g>
			<g transform="translate(-808,-592)">
				<circle class="portal" r="14" />
				<text class="portal" y="4">Ha</text>
			</g>
			<g transform="translate(-249,-2)">
				<circle class="portal" r="14" />
				<text class="portal" y="4">Po</text>
			</g>
			<g transform="translate(-1171,-165)">
				<circle class="portal" r="14" />
				<text class="portal" y="4">Vi</text>
			</g>
		</g>
	</g>

</svg>