<!--
	CivCraft Nether Roads Map
	https://github.com/hpoom/Nether-Roads-Map
-->
<svg xmlns="http://www.w3.org/2000/svg" version="1.1" width="1800" height="1800">
	<style type="text/css">
	<![CDATA[

		circle.portal {
			stroke: black;
			stroke-width: 1.5;
			fill: silver;
		}
		
		text.portal {
			fill: black;
			font-size: 13px;
			text-anchor: middle;
		}
		
		text.portal_small {
			fill: black;
			font-size: 11px;
			text-anchor: middle;
		}
		
		line.road {
			stroke: #444;
			stroke-width: 1.5;
		}

	]]>
	</style>
	<!--
		Change this translation to subtract the top left portal of the map.
		If the top left corner is 50, 70 then this translation should be
		-50, -70; likewise 200, -4400 is a translation of -200, 4400.
	-->
	<g transform="translate(1180,930)">
	
		<!-- Road Lines -->
		<g>
			<line class="road" x1="-1118" y1="-541" x2="409"  y2="-541" />
			<line class="road" x1="-612"  y1="-612" x2="-616" y2="289" />
		</g>
		
		<!-- Portals -->
		<g>
			<g transform="translate(-614,-618)">
				<circle class="portal" r="14" />
				<text class="portal" y="4">MA</text>
			</g>
			<g transform="translate(-811,492)">
				<circle class="portal" r="14" />
				<text class="portal" y="4">Co</text>
			</g>
			<g transform="translate(1,0)">
				<circle class="portal" r="14" />
				<text class="portal" y="4">00</text>
			</g>
			<g transform="translate(-168,1)">
				<circle class="portal" r="14" />
				<text class="portal" y="4">Li</text>
			</g>
			<g transform="translate(438,-470)">
				<circle class="portal" r="14" />
				<text class="portal" y="4">Ri</text>
			</g>
			<g transform="translate(380,-612)">
				<circle class="portal" r="14" />
				<text class="portal" y="4">SC</text>
			</g>
			<g transform="translate(413,-263)">
				<circle class="portal" r="14" />
				<text class="portal" y="4">Cr</text>
			</g>
			<g transform="translate(-713,-721)">
				<circle class="portal" r="14" />
				<text class="portal" y="4">YF</text>
			</g>
			<g transform="translate(312,-385)">
				<circle class="portal" r="14" />
				<text class="portal" y="4">Ag</text>
			</g>
			<g transform="translate(-59,-366)">
				<circle class="portal" r="14" />
				<text class="portal" y="4">NK</text>
			</g>
			<g transform="translate(-78,-520)">
				<circle class="portal" r="14" />
				<text class="portal" y="4">IK</text>
			</g>
			<g transform="translate(15,-526)">
				<circle class="portal" r="14" />
				<text class="portal" y="4">Ti</text>
			</g>
			<g transform="translate(470,-540)">
				<circle class="portal" r="14" />
				<text class="portal" y="4">Wi</text>
			</g>
			<g transform="translate(-1118,-543)">
				<circle class="portal" r="14" />
				<text class="portal" y="4">Ar</text>
			</g>
			<g transform="translate(527,-683)">
				<circle class="portal" r="14" />
				<text class="portal_small" y="4">Atl</text>
			</g>
			<g transform="translate(80,-200)">
				<circle class="portal" r="14" />
				<text class="portal_small" y="4">TGS</text>
			</g>
			<g transform="translate(-242,240)">
				<circle class="portal" r="14" />
				<text class="portal_small" y="4">Va</text>
			</g>
			<g transform="translate(-577,748)">
				<circle class="portal" r="14" />
				<text class="portal_small" y="4">Ki</text>
			</g>
			<g transform="translate(-776,-898)">
				<circle class="portal" r="14" />
				<text class="portal_small" y="4">CC</text>
			</g>
			<g transform="translate(409,-515)">
				<circle class="portal" r="14" />
				<text class="portal" y="4">La</text>
			</g>
			<g transform="translate(-920,289)">
				<circle class="portal" r="14" />
				<text class="portal_small" y="4">Atm</text>
			</g>
			<g transform="translate(-800,-593)">
				<circle class="portal" r="14" />
				<text class="portal" y="4">Al</text>
			</g>
			<g transform="translate(-673,738)">
				<circle class="portal" r="14" />
				<text class="portal" y="4">BB</text>
			</g>
			<g transform="translate(-978,-251)">
				<circle class="portal" r="14" />
				<text class="portal" y="4">Cf</text>
			</g>
			<g transform="translate(-3,-701)">
				<circle class="portal" r="14" />
				<text class="portal" y="4">Go</text>
			</g>
			<g transform="translate(56,-373)">
				<circle class="portal" r="14" />
				<text class="portal" y="4">Ho</text>
			</g>
			<g transform="translate(-1083,-492)">
				<circle class="portal" r="14" />
				<text class="portal" y="4">To</text>
			</g>
			<g transform="translate(-739,-766)">
				<circle class="portal" r="14" />
				<text class="portal" y="4">Av</text>
			</g>
			<g transform="translate(-819,-448)">
				<circle class="portal" r="14" />
				<text class="portal" y="4">De</text>
			</g>
			<g transform="translate(-684,488)">
				<circle class="portal" r="14" />
				<text class="portal" y="4">Ra</text>
			</g>
			<g transform="translate(-453,806)">
				<circle class="portal" r="14" />
				<text class="portal" y="4">Bj</text>
			</g>
			<g transform="translate(540,400)">
				<circle class="portal" r="14" />
				<text class="portal" y="4">Ge</text>
			</g>
			<g transform="translate(-471,-154)">
				<circle class="portal" r="14" />
				<text class="portal" y="4">Sa</text>
			</g>
			<g transform="translate(-1070,-708)">
				<circle class="portal" r="14" />
				<text class="portal" y="4">Im</text>
			</g>
			<g transform="translate(-1013,-556)">
				<circle class="portal" r="14" />
				<text class="portal_small" y="4">Sky</text>
			</g>
			<g transform="translate(-438,309)">
				<circle class="portal" r="14" />
				<text class="portal" y="4">JH</text>
			</g>
			<g transform="translate(-407,237)">
				<circle class="portal" r="14" />
				<text class="portal" y="4">OP</text>
			</g>
			<g transform="translate(-840,-167)">
				<circle class="portal" r="14" />
				<text class="portal" y="4">Io</text>
			</g>
			<g transform="translate(-538,-419)">
				<circle class="portal" r="14" />
				<text class="portal" y="4">AS</text>
			</g>
			<g transform="translate(-714,-398)">
				<circle class="portal" r="14" />
				<text class="portal" y="4">Le</text>
			</g>
			<g transform="translate(560,546)">
				<circle class="portal" r="14" />
				<text class="portal_small" y="4">Con</text>
			</g>
			<g transform="translate(489,231)">
				<circle class="portal" r="14" />
				<text class="portal_small" y="4">Com</text>
			</g>
			<g transform="translate(-704,-830)">
				<circle class="portal" r="14" />
				<text class="portal" y="4">Pr</text>
			</g>
			<g transform="translate(72,-267)">
				<circle class="portal" r="14" />
				<text class="portal" y="4">Tr</text>
			</g>
			<g transform="translate(-384,-121)">
				<circle class="portal" r="14" />
				<text class="portal" y="4">Ep</text>
			</g>
			<g transform="translate(-364,0)">
				<circle class="portal" r="14" />
				<text class="portal" y="4">Av</text>
			</g>
			<g transform="translate(-669,93)">
				<circle class="portal" r="14" />
				<text class="portal_small" y="4">Sov</text>
			</g>
			<g transform="translate(2,-137)">
				<circle class="portal" r="14" />
				<text class="portal" y="4">Ro</text>
			</g>
			<g transform="translate(398,148)">
				<circle class="portal" r="14" />
				<text class="portal" y="4">Ko</text>
			</g>
		</g>
	</g>

</svg>